<svg xmlns="http://www.w3.org/2000/svg" xmlns:xlink="http://www.w3.org/1999/xlink" width="22" height="13.886" viewBox="0 0 22 13.886"><defs><style>.a{fill:none;}.b{clip-path:url(#a);}.c{fill:#f7f7f5;}.d{clip-path:url(#b);}</style><clipPath id="a"><path class="a" d="M0,0H6.771V6.771H0Z" transform="translate(0.188 0.081)"/></clipPath><clipPath id="b"><path class="a" d="M0,0H13.661V13.886H0Z" transform="translate(0 0.032)"/></clipPath></defs><g transform="translate(0 -0.225)"><g transform="translate(15.041 3.335)"><path class="a" d="M0,0H6.771V6.771H0Z" transform="translate(0.188 0.081)"/><g class="b"><path class="c" d="M6.771,2.484H4.287V0h-1.8V2.484H0v1.8H2.484V6.771h1.8V4.287H6.771Z" transform="translate(0.188 0.081)"/></g></g><g transform="translate(0 0.192)"><path class="a" d="M0,0H13.661V13.886H0Z" transform="translate(0 0.032)"/><g class="d"><path class="c" d="M9.645,3.582l2-2.046A7.553,7.553,0,0,0,5.278.186,6.154,6.154,0,0,0,.105,5.533a7.613,7.613,0,0,0,1.608,6.2c1.135,1.227,2.521,2.156,5.464,2.156,3.08,0,6.686-2.542,6.476-8.279H6.882v2.7h3.859a3.538,3.538,0,0,1-3.269,2.721c-1.752.105-4.092-.464-4.556-3.269C2.572,5.677,3.393,3.276,5.924,2.9a4.657,4.657,0,0,1,3.72.686" transform="translate(0 0.032)"/></g></g></g></svg>