<svg xmlns="http://www.w3.org/2000/svg" width="22.597" height="22.597" viewBox="0 0 22.597 22.597"><defs><style>.a{fill:#f7f7f5;}</style></defs><g transform="translate(0 -0.223)"><g transform="translate(0 0.044)"><path class="a" d="M15.617,22.6H6.98A6.989,6.989,0,0,1,0,15.616V6.98A6.988,6.988,0,0,1,6.98,0h8.636A6.988,6.988,0,0,1,22.6,6.98v8.635A6.989,6.989,0,0,1,15.617,22.6ZM6.98,2.519A4.466,4.466,0,0,0,2.519,6.98v8.635A4.467,4.467,0,0,0,6.98,20.079h8.636a4.467,4.467,0,0,0,4.461-4.463V6.98a4.466,4.466,0,0,0-4.461-4.461Z" transform="translate(0 0.179)"/></g><path class="a" d="M5.775,11.551a5.775,5.775,0,1,1,5.775-5.775A5.782,5.782,0,0,1,5.775,11.551Zm0-9.283A3.508,3.508,0,1,0,9.283,5.775,3.512,3.512,0,0,0,5.775,2.267Z" transform="translate(5.523 5.746)"/><path class="a" d="M1.953.976A.976.976,0,1,1,.976,0a.977.977,0,0,1,.976.976" transform="translate(16.389 4.434)"/></g></svg>