<svg xmlns="http://www.w3.org/2000/svg" xmlns:xlink="http://www.w3.org/1999/xlink" width="299.778" height="74.01" viewBox="0 0 299.778 74.01"><defs><style>.a{fill:none;}.b{fill:#ec1c24;}.c{fill:#231f20;}.d{clip-path:url(#a);}</style><clipPath id="a"><path class="a" d="M0,74.009H299.778V0H0Z"/></clipPath></defs><path class="b" d="M4.454,2.241A2.24,2.24,0,0,1,2.228,4.486,2.243,2.243,0,0,1,2.228,0,2.238,2.238,0,0,1,4.454,2.241" transform="translate(196.937 69.524)"/><path class="c" d="M221.679,12.811h-3.815V.4h6.578L230.9,9.661h.388L231.206.4h3.815V12.809h-6.527l-6.487-9.26H221.6l.08,9.26Zm-174.694,0H43.2V.4h9.091c2.055,0,3.371.02,3.806.058A2.919,2.919,0,0,1,57.321.9a2.158,2.158,0,0,1,.952,1.169,7.953,7.953,0,0,1,.257,2.362,9.294,9.294,0,0,1-.158,1.991,1.957,1.957,0,0,1-.62,1.024,3.284,3.284,0,0,1-1.5.568,2.3,2.3,0,0,1,1.687.676,1.714,1.714,0,0,1,.384.858,19.544,19.544,0,0,1,.078,2.111v1.155H54.712v-.665a12.744,12.744,0,0,0-.06-1.463,1.548,1.548,0,0,0-.3-.683.9.9,0,0,0-.573-.271,11.769,11.769,0,0,0-1.53-.066H46.985V12.81Zm0-9.3V6.559h5.26c.83-.023,1.438-.046,1.626-.062a.782.782,0,0,0,.448-.137.821.821,0,0,0,.338-.463,3.47,3.47,0,0,0,.1-.9,3.323,3.323,0,0,0-.1-.913.9.9,0,0,0-.394-.433,1.16,1.16,0,0,0-.468-.106c-.136-.016-.453-.02-.978-.027l-.568-.008ZM18.6,12.811H14.892V.4H21.7l3.673,8.063L29.023.4h6.783V12.809H32.1l.1-9.26h-.609l-4.654,9.26H23.819L19.165,3.55H18.5l.1,9.26Zm111.364,0h-4.3L132.2.4h5.833l6.445,12.408h-4.26L137.817,8h.026l-2.378-4.723h-.754L132.344,8h.012l-2.394,4.811Zm-66.991,0H58.68L65.211.4h5.834l6.441,12.408H73.236L72.183,10.7H64.024L62.97,12.81Zm4.768-9.535L65.361,8h5.5L68.485,3.275ZM207.956,12.81a53,53,0,0,1-5.522-.188,2.821,2.821,0,0,1-2.637-2.077,17.386,17.386,0,0,1-.337-4.191A16.382,16.382,0,0,1,199.8,2.3,2.82,2.82,0,0,1,202.433.222a79.081,79.081,0,0,1,10.98,0A2.857,2.857,0,0,1,216.06,2.3a18.656,18.656,0,0,1,.327,4.109,18.6,18.6,0,0,1-.327,4.134,2.859,2.859,0,0,1-2.647,2.077A52.387,52.387,0,0,1,207.956,12.81Zm-.017-9.535a23.9,23.9,0,0,0-3.571.148,1.227,1.227,0,0,0-.905.822,9.313,9.313,0,0,0-.215,2.506,8.175,8.175,0,0,0,.112,1.633,1.445,1.445,0,0,0,1.359,1.082c.559.066,1.649.1,3.238.1,1.5,0,2.5-.029,2.99-.087a2.073,2.073,0,0,0,1.1-.359,1.274,1.274,0,0,0,.446-.734A8.264,8.264,0,0,0,212.6,6.77a15.666,15.666,0,0,0-.084-1.957,2.021,2.021,0,0,0-.328-.948,1.35,1.35,0,0,0-.979-.493A28.527,28.527,0,0,0,207.939,3.275Zm-9.969,9.535h-3.945V.4h3.945V12.809Zm-10.288,0H183.72V3.568h-5.476V.4h14.9V3.568h-5.467v9.24Zm-16.843,0c-2.4,0-4.036-.046-5.008-.14a6.027,6.027,0,0,1-2.249-.525,2.352,2.352,0,0,1-1.008-.957,4.378,4.378,0,0,1-.435-1.654c-.049-.558-.074-1.585-.074-3.05,0-1.436.025-2.483.074-3.112a5,5,0,0,1,.319-1.489A2.734,2.734,0,0,1,164.546.347,36.284,36.284,0,0,1,170.881,0c1.586,0,2.75.032,3.459.1a5.949,5.949,0,0,1,1.732.413,2.452,2.452,0,0,1,1.184,1.205,6.11,6.11,0,0,1,.345,2.32c0,.022,0,.079-.007.174s-.012.245-.019.432H173.82a4.536,4.536,0,0,0-.077-.819.493.493,0,0,0-.213-.34,2.108,2.108,0,0,0-1.079-.285,26.216,26.216,0,0,0-2.638-.082c-1.225,0-2,.019-2.424.06a2.122,2.122,0,0,0-.951.317,1.55,1.55,0,0,0-.461.924,11.756,11.756,0,0,0-.126,2.047,14.015,14.015,0,0,0,.1,1.993,1.351,1.351,0,0,0,.465.834,1.9,1.9,0,0,0,.995.323,20.145,20.145,0,0,0,2.426.081,26.271,26.271,0,0,0,2.866-.081,1.535,1.535,0,0,0,.967-.3,2.31,2.31,0,0,0,.347-1.475h3.752c.029.59.029,1,.029,1.169a4.855,4.855,0,0,1-.427,2.244,2.569,2.569,0,0,1-1.831,1.236A22.978,22.978,0,0,1,170.838,12.81Zm-18.159,0c-1.387,0-2.58-.029-3.451-.083a12.1,12.1,0,0,1-2.11-.291,2.777,2.777,0,0,1-2.3-2.4,12.877,12.877,0,0,1-.167-1.336c-.025-.392-.035-1.311-.049-2.777V.222h3.8v5.7a16.188,16.188,0,0,0,.131,2.456,1.21,1.21,0,0,0,.932.964,14.433,14.433,0,0,0,3.182.217,20.491,20.491,0,0,0,2.675-.119A1.663,1.663,0,0,0,156.387,9a1.354,1.354,0,0,0,.291-.569,9.884,9.884,0,0,0,.138-1.136l0-.109c.021-.5.039-.931.039-1.262V.222h3.771v5.7c-.031,1.812-.094,3.193-.177,3.886a2.988,2.988,0,0,1-1.5,2.282,4.683,4.683,0,0,1-2,.57A42.314,42.314,0,0,1,152.679,12.81Zm-39.567,0a40.335,40.335,0,0,1-4.107-.145,5.232,5.232,0,0,1-2-.52,2.133,2.133,0,0,1-.967-1.047,5.7,5.7,0,0,1-.265-1.994V8.528h3.643c-.006.624.115,1.008.368,1.176a1.321,1.321,0,0,0,.7.215c.212.013.73.022,1.587.036h.006l1.117.019c1.55-.007,2.525-.027,2.857-.037a2.667,2.667,0,0,0,.756-.139c.28-.12.422-.435.422-.938a.817.817,0,0,0-.29-.745,2.748,2.748,0,0,0-1.205-.2c-.458,0-1.387-.042-2.794-.105l-.146-.007-1.323-.062h-.005c-.793-.038-1.365-.065-1.682-.072a9.2,9.2,0,0,1-2.078-.253,2.3,2.3,0,0,1-1.137-.7,4.051,4.051,0,0,1-.7-2.673,4.356,4.356,0,0,1,.8-2.981,3.019,3.019,0,0,1,1.85-.843,43.173,43.173,0,0,1,5.108-.191,33.167,33.167,0,0,1,3.818.154,3.738,3.738,0,0,1,2.339.948,3.636,3.636,0,0,1,.632,2.386v.592h-3.646a2.2,2.2,0,0,0-.087-.695.605.605,0,0,0-.263-.314,1.769,1.769,0,0,0-.859-.184c-.482-.038-1.426-.06-2.59-.06a15.162,15.162,0,0,0-2.919.161.791.791,0,0,0-.532.845.736.736,0,0,0,.532.8,37.036,37.036,0,0,0,3.983.214c1.926.07,3.31.146,4,.22a4.3,4.3,0,0,1,1.6.47,2.207,2.207,0,0,1,.957,1.119,5.812,5.812,0,0,1,.29,2.044,5.743,5.743,0,0,1-.468,2.614,2.265,2.265,0,0,1-.994.944,4.963,4.963,0,0,1-1.755.412C116.874,12.774,115.427,12.81,113.112,12.81Zm-8.064,0H91.3V.4h13.654V3.316H94.982v1.8h9.472v2.74H94.982V9.838h10.066v2.971Zm-20.087,0H81.009V3.568h-5.48V.4h14.9V3.568H84.961v9.24Zm-43.478,0H37.527V.4h3.956V12.809Zm-27.739,0H0V.4H13.64V3.316H3.686v1.8h9.452v2.74H3.686V9.838H13.744v2.971Z" transform="translate(64.088 61.199)"/><path class="b" d="M4.44,2.23A2.22,2.22,0,1,1,0,2.23a2.22,2.22,0,1,1,4.44,0" transform="translate(117.507 34.799)"/><path class="c" d="M8.087,5.666c0,.349-.019.8-.043,1.375a8.758,8.758,0,0,1-.135,1.123,1.378,1.378,0,0,1-.293.57,1.9,1.9,0,0,1-1.069.458A20.69,20.69,0,0,1,3.862,9.3,14.745,14.745,0,0,1,.7,9.074,1.555,1.555,0,0,1,0,8.656v3.736c.166.02.33.02.48.033q1.21.089,3.433.088a38.341,38.341,0,0,0,4.235-.154,5.192,5.192,0,0,0,2.005-.54,3.022,3.022,0,0,0,1.471-2.287c.086-.6.146-1.9.184-3.867V0H8.087Z" transform="translate(281.57 36.287)"/><path class="a" d="M0,74.009H299.778V0H0Z"/><g class="d"><path class="c" d="M0,8.771H3.244V0H0Z" transform="translate(284.032 35.908)"/><path class="c" d="M22.93,3.73H7.308a15.887,15.887,0,0,1-2.113-.1A1.934,1.934,0,0,1,4.238,3.3a1.421,1.421,0,0,1-.419-.817A7.7,7.7,0,0,1,3.683.772c0-.287.006-.547.02-.772H0V.521A22.006,22.006,0,0,0,.092,3.035,7.385,7.385,0,0,0,.4,4.574a2.868,2.868,0,0,0,2.251,2,9.266,9.266,0,0,0,1.714.239c.617.045,1.606.065,2.976.065h19.28V0H22.93Z" transform="translate(189.925 41.8)"/><path class="c" d="M0,12.34H3.255V0H0Z" transform="translate(219.028 36.46)"/><path class="c" d="M1.431,7.759A11.061,11.061,0,0,1,1.37,9.153c-.083.455-.393.668-.919.668H0v2.23c.325.025.669.03,1.02.03a7.4,7.4,0,0,0,2.249-.273,2.01,2.01,0,0,0,1.115-1,2.726,2.726,0,0,0,.241-.843,14.62,14.62,0,0,0,.06-1.737V0H1.431Z" transform="translate(223.768 41.576)"/><path class="c" d="M1.008,17.37c-.37,0-.683-.005-1.008-.031V15.11H.439c.54,0,.832-.212.919-.668a10.556,10.556,0,0,0,.058-1.393V5.289h3.26v3.3a.711.711,0,0,0,.217.3A4.407,4.407,0,0,0,7.351,9.3c.985,0,13.259-.072,14.881-.174l0-.049c-.015-.35-.033-.785-.033-1.337a8.891,8.891,0,0,1,.233-2.416,2.308,2.308,0,0,1,.876-1.22,3.071,3.071,0,0,1,.441-.256.342.342,0,0,1,.1-.035,1.356,1.356,0,0,1,.311-.122l.064-.019.021-.005c.018,0,.039-.008.047-.022h.047a6.379,6.379,0,0,1,.688-.171,20.5,20.5,0,0,1,3.312-.168h.033a20.306,20.306,0,0,1,3.309.168l.033.007a6.578,6.578,0,0,1,.666.164H32.4a.2.2,0,0,0,.072.023l.019,0,.049.015a1.63,1.63,0,0,1,.327.126.356.356,0,0,1,.084.035,3.087,3.087,0,0,1,.45.256,2.347,2.347,0,0,1,.878,1.22A9.478,9.478,0,0,1,34.5,7.745c0,.56,0,1-.039,1.385,1.6.1,4,.174,4.83.174,1.372,0,12.488-.139,12.813-.416a.967.967,0,0,0,.266-.487,6.478,6.478,0,0,0,.071-1.091V0h3.723V5.753A16.744,16.744,0,0,0,56.3,8.123a1.168,1.168,0,0,0,.932.95,14.937,14.937,0,0,0,3.175.23,20.415,20.415,0,0,0,2.67-.113,1.888,1.888,0,0,0,1.073-.458,1.3,1.3,0,0,0,.3-.571A6.265,6.265,0,0,0,64.57,7.04c.03-.482.045-.932.045-1.374V0h3.726V5.665c-.042,2.063-.1,3.292-.181,3.867a3,3,0,0,1-1.472,2.286,5.058,5.058,0,0,1-2,.541,38.069,38.069,0,0,1-4.247.153c-1.468,0-2.614-.029-3.407-.087a13.5,13.5,0,0,1-2.087-.284l-.093-.026a3.49,3.49,0,0,1-.425-.138,4.076,4.076,0,0,1-.809.278c-.777.171-12.627.257-14.062.257a20.609,20.609,0,0,1-4.474-.338,2.568,2.568,0,0,1-1.359-.745,2.544,2.544,0,0,1-1.42.788,2.722,2.722,0,0,1-.275.07L32,12.293l-.088.016c-.037.007-.068.013-.106.018a21.613,21.613,0,0,1-2.74.185H27.62a21.463,21.463,0,0,1-2.731-.185c-.069-.01-.129-.021-.185-.034a1.92,1.92,0,0,1-.3-.075,2.519,2.519,0,0,1-1.434-.788,2.537,2.537,0,0,1-1.354.745c-.946.236-12.727.338-14.532.338-.948,0-1.735-.029-2.406-.087v1.1c0,.808-.018,1.409-.052,1.736a2.621,2.621,0,0,1-.255.843,1.991,1.991,0,0,1-1.1,1A7.465,7.465,0,0,1,1.008,17.37ZM26.176,6.044h0a1.129,1.129,0,0,0-.533.628,3.7,3.7,0,0,0-.173,1.3c0,.194.009.367.019.535,0,.049.005.1.008.144a1.707,1.707,0,0,0,.347.887,1.126,1.126,0,0,0,.316.215,5.731,5.731,0,0,0,2.186.292,5.722,5.722,0,0,0,2.19-.292,1.19,1.19,0,0,0,.322-.211l.005,0a1.809,1.809,0,0,0,.337-.887c.019-.2.028-.425.028-.679a3.673,3.673,0,0,0-.17-1.3,1.119,1.119,0,0,0-.534-.628H30.5A4.2,4.2,0,0,0,29.259,5.8c-.269-.014-.576-.021-.913-.021s-.619.007-.909.021a4.231,4.231,0,0,0-1.241.242h-.019Z" transform="translate(116.6 36.287)"/><path class="c" d="M41.984,12.514a24.052,24.052,0,0,1-3.485-.187,3.482,3.482,0,0,1-1.675-.69,1.882,1.882,0,0,1-.228-.224,2.666,2.666,0,0,1-1.375.762c-.936.235-27.214.339-28.947.339a19.056,19.056,0,0,1-3.721-.259A3.087,3.087,0,0,1,.8,11.306a2.748,2.748,0,0,1-.634-1.35A14.513,14.513,0,0,1,0,7.385V0H3.726V7.31A6.534,6.534,0,0,0,3.789,8.4a.932.932,0,0,0,.279.487A4.524,4.524,0,0,0,6.541,9.3c1.182,0,27.7-.07,29.329-.173-.042-.446-.045-.966-.045-1.5a11.371,11.371,0,0,1,.085-1.659,2.946,2.946,0,0,1,.325-1.022,2.515,2.515,0,0,1,1.671-1.3,16.736,16.736,0,0,1,4.068-.339,20.181,20.181,0,0,1,3.3.168A4.007,4.007,0,0,1,47,4.109a2.317,2.317,0,0,1,.877,1.22A9.119,9.119,0,0,1,48.1,7.745c0,.866-.017,1.448-.054,1.832a4.377,4.377,0,0,1-.251,1.092,2.454,2.454,0,0,1-1.886,1.55A18.452,18.452,0,0,1,41.984,12.514Zm.009-6.733a6.016,6.016,0,0,0-2.166.25,1.105,1.105,0,0,0-.581.64,3.717,3.717,0,0,0-.17,1.3,3.649,3.649,0,0,0,.147,1.227,1.018,1.018,0,0,0,.544.554,5.826,5.826,0,0,0,2.218.292,4.541,4.541,0,0,0,2.354-.392c.346-.262.522-.856.522-1.764a3.387,3.387,0,0,0-.175-1.248.966.966,0,0,0-.569-.59A5.7,5.7,0,0,0,41.993,5.782Z" transform="translate(230.979 36.287)"/><path class="c" d="M22.927,3.73H7.313a15.659,15.659,0,0,1-2.111-.1A1.835,1.835,0,0,1,4.249,3.3,1.494,1.494,0,0,1,3.8,2.481,9.39,9.39,0,0,1,3.689.772c0-.287,0-.547.009-.772H0V.521C0,1.635.031,2.471.081,3.035A7.767,7.767,0,0,0,.4,4.574a2.866,2.866,0,0,0,2.261,2,8.907,8.907,0,0,0,1.712.239q.9.067,2.965.065H26.627V0h-3.7Z" transform="translate(63.973 41.8)"/><path class="c" d="M0,12.34H3.26V0H0Z" transform="translate(111.821 36.46)"/><path class="c" d="M0,12.34H3.253V0H0Z" transform="translate(93.052 36.46)"/><path class="c" d="M7.807.1A30.046,30.046,0,0,0,4.589,0H0V3.093H4.6a10.138,10.138,0,0,1,1.954.113.865.865,0,0,1,.472.452,2.669,2.669,0,0,1,.129.958,3.1,3.1,0,0,1-.11.977.844.844,0,0,1-.391.47,1.641,1.641,0,0,1-.5.144c-.183.011-.7.024-1.552.024H0V9.322H4.628q2.173,0,2.979-.086a4.854,4.854,0,0,0,1.771-.463,2.433,2.433,0,0,0,.991-.931A7.034,7.034,0,0,0,10.9,4.616a6.414,6.414,0,0,0-.63-3.335A3.372,3.372,0,0,0,7.807.1" transform="translate(98.657 39.096)"/><path class="c" d="M4.454,2.23A2.227,2.227,0,1,1,2.22,0,2.229,2.229,0,0,1,4.454,2.23" transform="translate(72.697 34.799)"/><path class="c" d="M4.447,2.23A2.224,2.224,0,1,1,2.225,0,2.225,2.225,0,0,1,4.447,2.23" transform="translate(77.76 34.799)"/><path class="c" d="M4.447,2.235A2.223,2.223,0,1,1,2.209,0,2.231,2.231,0,0,1,4.447,2.235" transform="translate(198.694 34.834)"/><path class="c" d="M4.45,2.235A2.225,2.225,0,1,1,2.215,0,2.231,2.231,0,0,1,4.45,2.235" transform="translate(203.747 34.834)"/><path class="c" d="M53.827,30.842V15.96L26.915,0,0,15.96V30.842L26.915,14.877Z" transform="translate(0 0)"/><path class="b" d="M53.827,30.841V15.964L26.915,0,0,15.964V30.841L26.915,14.877Z" transform="translate(0 21.076)"/><path class="c" d="M53.827,30.831V15.957L26.915,0,0,15.957V30.831L26.915,14.867Z" transform="translate(0 42.157)"/><path class="b" d="M7.2,3.692a3.651,3.651,0,0,1-3.6,3.7A3.651,3.651,0,0,1,0,3.692,3.648,3.648,0,0,1,3.594,0,3.648,3.648,0,0,1,7.2,3.692" transform="translate(23.316 66.622)"/><path class="c" d="M0,12.337H3.932V0H0Z" transform="translate(295.845 36.342)"/></g></svg>