<svg xmlns="http://www.w3.org/2000/svg" width="20.826" height="16.698" viewBox="0 0 20.826 16.698"><defs><style>.a{fill:#f3f7f7;}</style></defs><path class="a" d="M17.4,1.268A3.946,3.946,0,0,0,14.384,0C12.113.077,10,1.467,10.247,5.028c0,0-3.421,1.043-8.745-4.021,0,0-1.713,2.792,1.315,5.424a2.826,2.826,0,0,1-1.986-.4S.223,8.392,4.12,10.179c0,0-1.315.372-1.911,0,0,0,.347,2.507,3.847,3.1,0,0-1.8,1.787-6.057,1.738,0,0,8.852,4.53,14.99-1.291a12.5,12.5,0,0,0,3.775-9.7,3.911,3.911,0,0,0,2.06-1.8,8.051,8.051,0,0,1-2.308.385S20.13,1.6,20.255.411a4.921,4.921,0,0,1-2.855.857"/></svg>